<?xml version="1.0" encoding="UTF-8" standalone="no"?>
<svg
   viewBox="0 0 384 512"
   version="1.1"
   id="svg12"
   sodipodi:docname="file-map.svg"
   inkscape:version="1.4 (86a8ad7, 2024-10-11)"
   xml:space="preserve"
   xmlns:inkscape="http://www.inkscape.org/namespaces/inkscape"
   xmlns:sodipodi="http://sodipodi.sourceforge.net/DTD/sodipodi-0.dtd"
   xmlns="http://www.w3.org/2000/svg"
   xmlns:svg="http://www.w3.org/2000/svg"><defs
     id="defs16" /><sodipodi:namedview
     id="namedview14"
     pagecolor="#000000"
     bordercolor="#000000"
     borderopacity="0.25"
     inkscape:showpageshadow="2"
     inkscape:pageopacity="0"
     inkscape:pagecheckerboard="0"
     inkscape:deskcolor="#d1d1d1"
     showgrid="false"
     inkscape:zoom="0.50146486"
     inkscape:cx="143.57935"
     inkscape:cy="307.10028"
     inkscape:window-width="1424"
     inkscape:window-height="820"
     inkscape:window-x="0"
     inkscape:window-y="0"
     inkscape:window-maximized="0"
     inkscape:current-layer="svg12" /><!--! Font Awesome Pro 6.4.0 by @fontawesome - https://fontawesome.com License - https://fontawesome.com/license (Commercial License) Copyright 2023 Fonticons, Inc. --><path
     d="M320 464c8.8 0 16-7.2 16-16V160H256c-17.7 0-32-14.3-32-32V48H64c-8.8 0-16 7.2-16 16V448c0 8.8 7.2 16 16 16H320zM0 64C0 28.7 28.7 0 64 0H229.5c17 0 33.3 6.7 45.3 18.7l90.5 90.5c12 12 18.7 28.3 18.7 45.3V448c0 35.3-28.7 64-64 64H64c-35.3 0-64-28.7-64-64V64z"
     id="path10"
     style="fill:#ffffff" /><path
     fill-rule="evenodd"
     clip-rule="evenodd"
     d="m 137.80934,321.78739 53.32015,66.65076 53.32039,-66.65076 c 10.29923,-12.87369 15.91038,-28.86993 15.91038,-45.357 v -3.37684 c 0,-38.23512 -30.99577,-69.23077 -69.23077,-69.23077 -38.23512,0 -69.23077,30.99565 -69.23077,69.23077 v 3.37684 c 0,16.48707 5.61115,32.48331 15.91062,45.357 z m 53.32015,-25.65693 c 12.74503,0 23.07693,-10.33188 23.07693,-23.07691 0,-12.74503 -10.3319,-23.07693 -23.07693,-23.07693 -12.74503,0 -23.07693,10.3319 -23.07693,23.07693 0,12.74503 10.3319,23.07691 23.07693,23.07691 z"
     fill="#000000"
     id="path1"
     style="fill:#ff6a00;fill-opacity:1;stroke:#ff6a00;stroke-width:11.5385;stroke-opacity:1" /></svg>
